<mxfile host="app.diagrams.net" agent="Mozilla/5.0 (Macintosh; Intel Mac OS X 10_15_7) AppleWebKit/537.36 (KHTML, like Gecko) Chrome/136.0.0.0 Safari/537.36" version="27.0.5">
  <diagram name="Page-1" id="EIpS3GqUX8W8YH9FIoeV">
    <mxGraphModel dx="1431" dy="958" grid="1" gridSize="10" guides="1" tooltips="1" connect="1" arrows="1" fold="1" page="1" pageScale="1" pageWidth="850" pageHeight="1100" math="0" shadow="0">
      <root>
        <mxCell id="0" />
        <mxCell id="1" parent="0" />
        <mxCell id="DWtEyYl0hj7PDEJEeW_B-1" value="Start" style="html=1;dashed=0;whiteSpace=wrap;shape=mxgraph.dfd.start" vertex="1" parent="1">
          <mxGeometry x="385" y="60" width="80" height="30" as="geometry" />
        </mxCell>
        <mxCell id="DWtEyYl0hj7PDEJEeW_B-2" value="Create Account" style="strokeWidth=1;html=1;shape=mxgraph.flowchart.display;whiteSpace=wrap;" vertex="1" parent="1">
          <mxGeometry x="383" y="120" width="83.33" height="50" as="geometry" />
        </mxCell>
        <mxCell id="DWtEyYl0hj7PDEJEeW_B-3" style="edgeStyle=orthogonalEdgeStyle;rounded=0;orthogonalLoop=1;jettySize=auto;html=1;entryX=0.5;entryY=0;entryDx=0;entryDy=0;entryPerimeter=0;" edge="1" parent="1" source="DWtEyYl0hj7PDEJEeW_B-1" target="DWtEyYl0hj7PDEJEeW_B-2">
          <mxGeometry relative="1" as="geometry" />
        </mxCell>
        <mxCell id="DWtEyYl0hj7PDEJEeW_B-4" style="edgeStyle=orthogonalEdgeStyle;rounded=0;orthogonalLoop=1;jettySize=auto;html=1;" edge="1" parent="1" source="DWtEyYl0hj7PDEJEeW_B-5" target="DWtEyYl0hj7PDEJEeW_B-7">
          <mxGeometry relative="1" as="geometry" />
        </mxCell>
        <mxCell id="DWtEyYl0hj7PDEJEeW_B-5" value="&lt;div&gt;&lt;br&gt;&lt;/div&gt;&lt;div&gt;Credentials&lt;/div&gt;" style="html=1;strokeWidth=2;shape=manualInput;whiteSpace=wrap;rounded=1;size=26;arcSize=11;" vertex="1" parent="1">
          <mxGeometry x="375" y="190" width="100" height="60" as="geometry" />
        </mxCell>
        <mxCell id="DWtEyYl0hj7PDEJEeW_B-6" style="edgeStyle=orthogonalEdgeStyle;rounded=0;orthogonalLoop=1;jettySize=auto;html=1;entryX=0.492;entryY=0.168;entryDx=0;entryDy=0;entryPerimeter=0;" edge="1" parent="1" source="DWtEyYl0hj7PDEJEeW_B-2" target="DWtEyYl0hj7PDEJEeW_B-5">
          <mxGeometry relative="1" as="geometry" />
        </mxCell>
        <mxCell id="DWtEyYl0hj7PDEJEeW_B-7" value="Verify Input" style="html=1;dashed=0;whiteSpace=wrap;" vertex="1" parent="1">
          <mxGeometry x="375" y="280" width="100" height="50" as="geometry" />
        </mxCell>
        <mxCell id="DWtEyYl0hj7PDEJEeW_B-10" style="edgeStyle=orthogonalEdgeStyle;rounded=0;orthogonalLoop=1;jettySize=auto;html=1;entryX=0.5;entryY=1;entryDx=0;entryDy=0;" edge="1" parent="1" source="DWtEyYl0hj7PDEJEeW_B-12" target="DWtEyYl0hj7PDEJEeW_B-15">
          <mxGeometry relative="1" as="geometry" />
        </mxCell>
        <mxCell id="DWtEyYl0hj7PDEJEeW_B-11" value="No" style="edgeLabel;html=1;align=center;verticalAlign=middle;resizable=0;points=[];" vertex="1" connectable="0" parent="DWtEyYl0hj7PDEJEeW_B-10">
          <mxGeometry x="-0.6444" y="2" relative="1" as="geometry">
            <mxPoint as="offset" />
          </mxGeometry>
        </mxCell>
        <mxCell id="DWtEyYl0hj7PDEJEeW_B-37" value="Yes" style="edgeStyle=orthogonalEdgeStyle;rounded=0;orthogonalLoop=1;jettySize=auto;html=1;entryX=0.5;entryY=0;entryDx=0;entryDy=0;" edge="1" parent="1" source="DWtEyYl0hj7PDEJEeW_B-12" target="DWtEyYl0hj7PDEJEeW_B-36">
          <mxGeometry relative="1" as="geometry" />
        </mxCell>
        <mxCell id="DWtEyYl0hj7PDEJEeW_B-12" value="Credentials&lt;div&gt;valid?&lt;/div&gt;" style="strokeWidth=2;html=1;shape=mxgraph.flowchart.decision;whiteSpace=wrap;" vertex="1" parent="1">
          <mxGeometry x="375" y="360" width="100" height="100" as="geometry" />
        </mxCell>
        <mxCell id="DWtEyYl0hj7PDEJEeW_B-13" style="edgeStyle=orthogonalEdgeStyle;rounded=0;orthogonalLoop=1;jettySize=auto;html=1;entryX=0.5;entryY=0;entryDx=0;entryDy=0;entryPerimeter=0;" edge="1" parent="1" source="DWtEyYl0hj7PDEJEeW_B-7" target="DWtEyYl0hj7PDEJEeW_B-12">
          <mxGeometry relative="1" as="geometry" />
        </mxCell>
        <mxCell id="DWtEyYl0hj7PDEJEeW_B-14" style="edgeStyle=orthogonalEdgeStyle;rounded=0;orthogonalLoop=1;jettySize=auto;html=1;exitX=0.5;exitY=0;exitDx=0;exitDy=0;" edge="1" parent="1" source="DWtEyYl0hj7PDEJEeW_B-15">
          <mxGeometry relative="1" as="geometry">
            <mxPoint x="420" y="180" as="targetPoint" />
            <Array as="points">
              <mxPoint x="310" y="180" />
            </Array>
          </mxGeometry>
        </mxCell>
        <mxCell id="DWtEyYl0hj7PDEJEeW_B-15" value="Show error" style="html=1;dashed=0;whiteSpace=wrap;" vertex="1" parent="1">
          <mxGeometry x="270" y="285" width="80" height="40" as="geometry" />
        </mxCell>
        <mxCell id="DWtEyYl0hj7PDEJEeW_B-16" value="" style="verticalLabelPosition=bottom;verticalAlign=top;html=1;shape=process;whiteSpace=wrap;rounded=1;size=0.14;arcSize=6;" vertex="1" parent="1">
          <mxGeometry x="375" y="730" width="100" height="60" as="geometry" />
        </mxCell>
        <mxCell id="DWtEyYl0hj7PDEJEeW_B-17" value="Verification" style="text;html=1;align=center;verticalAlign=middle;whiteSpace=wrap;rounded=0;" vertex="1" parent="1">
          <mxGeometry x="395.34000000000003" y="745" width="60" height="30" as="geometry" />
        </mxCell>
        <mxCell id="DWtEyYl0hj7PDEJEeW_B-18" value="End" style="html=1;dashed=0;whiteSpace=wrap;shape=mxgraph.dfd.start" vertex="1" parent="1">
          <mxGeometry x="384.66" y="820" width="80" height="30" as="geometry" />
        </mxCell>
        <mxCell id="DWtEyYl0hj7PDEJEeW_B-23" style="edgeStyle=orthogonalEdgeStyle;rounded=0;orthogonalLoop=1;jettySize=auto;html=1;" edge="1" parent="1" source="DWtEyYl0hj7PDEJEeW_B-27" target="DWtEyYl0hj7PDEJEeW_B-16">
          <mxGeometry relative="1" as="geometry" />
        </mxCell>
        <mxCell id="DWtEyYl0hj7PDEJEeW_B-24" value="Yes" style="edgeLabel;html=1;align=center;verticalAlign=middle;resizable=0;points=[];" vertex="1" connectable="0" parent="DWtEyYl0hj7PDEJEeW_B-23">
          <mxGeometry x="-0.2309" relative="1" as="geometry">
            <mxPoint as="offset" />
          </mxGeometry>
        </mxCell>
        <mxCell id="DWtEyYl0hj7PDEJEeW_B-25" style="edgeStyle=orthogonalEdgeStyle;rounded=0;orthogonalLoop=1;jettySize=auto;html=1;entryX=0.5;entryY=1;entryDx=0;entryDy=0;" edge="1" parent="1" source="DWtEyYl0hj7PDEJEeW_B-27" target="DWtEyYl0hj7PDEJEeW_B-15">
          <mxGeometry relative="1" as="geometry" />
        </mxCell>
        <mxCell id="DWtEyYl0hj7PDEJEeW_B-26" value="No" style="edgeLabel;html=1;align=center;verticalAlign=middle;resizable=0;points=[];" vertex="1" connectable="0" parent="DWtEyYl0hj7PDEJEeW_B-25">
          <mxGeometry x="-0.8558" y="2" relative="1" as="geometry">
            <mxPoint as="offset" />
          </mxGeometry>
        </mxCell>
        <mxCell id="DWtEyYl0hj7PDEJEeW_B-27" value="Account&amp;nbsp;&lt;div&gt;created?&lt;/div&gt;" style="strokeWidth=2;html=1;shape=mxgraph.flowchart.decision;whiteSpace=wrap;" vertex="1" parent="1">
          <mxGeometry x="375.34000000000003" y="580" width="100" height="100" as="geometry" />
        </mxCell>
        <mxCell id="DWtEyYl0hj7PDEJEeW_B-29" style="edgeStyle=orthogonalEdgeStyle;rounded=0;orthogonalLoop=1;jettySize=auto;html=1;entryX=0.5;entryY=0.5;entryDx=0;entryDy=-15;entryPerimeter=0;" edge="1" parent="1" source="DWtEyYl0hj7PDEJEeW_B-16" target="DWtEyYl0hj7PDEJEeW_B-18">
          <mxGeometry relative="1" as="geometry" />
        </mxCell>
        <mxCell id="DWtEyYl0hj7PDEJEeW_B-33" value="&lt;div&gt;&lt;br&gt;&lt;/div&gt;Auth.User" style="strokeWidth=2;html=1;shape=mxgraph.flowchart.database;whiteSpace=wrap;" vertex="1" parent="1">
          <mxGeometry x="531" y="490.00000000000006" width="60" height="60" as="geometry" />
        </mxCell>
        <mxCell id="DWtEyYl0hj7PDEJEeW_B-36" value="Create Account" style="html=1;dashed=0;whiteSpace=wrap;" vertex="1" parent="1">
          <mxGeometry x="375.34000000000003" y="500" width="100" height="50" as="geometry" />
        </mxCell>
        <mxCell id="DWtEyYl0hj7PDEJEeW_B-39" style="edgeStyle=orthogonalEdgeStyle;rounded=0;orthogonalLoop=1;jettySize=auto;html=1;entryX=0.5;entryY=0;entryDx=0;entryDy=0;entryPerimeter=0;" edge="1" parent="1" source="DWtEyYl0hj7PDEJEeW_B-36" target="DWtEyYl0hj7PDEJEeW_B-27">
          <mxGeometry relative="1" as="geometry" />
        </mxCell>
        <mxCell id="DWtEyYl0hj7PDEJEeW_B-40" style="edgeStyle=orthogonalEdgeStyle;rounded=0;orthogonalLoop=1;jettySize=auto;html=1;entryX=0.985;entryY=0.388;entryDx=0;entryDy=0;entryPerimeter=0;" edge="1" parent="1" source="DWtEyYl0hj7PDEJEeW_B-33" target="DWtEyYl0hj7PDEJEeW_B-36">
          <mxGeometry relative="1" as="geometry" />
        </mxCell>
        <mxCell id="DWtEyYl0hj7PDEJEeW_B-42" style="edgeStyle=orthogonalEdgeStyle;rounded=0;orthogonalLoop=1;jettySize=auto;html=1;entryX=0.002;entryY=0.677;entryDx=0;entryDy=0;entryPerimeter=0;" edge="1" parent="1" source="DWtEyYl0hj7PDEJEeW_B-36" target="DWtEyYl0hj7PDEJEeW_B-33">
          <mxGeometry relative="1" as="geometry">
            <Array as="points">
              <mxPoint x="508" y="530" />
            </Array>
          </mxGeometry>
        </mxCell>
      </root>
    </mxGraphModel>
  </diagram>
</mxfile>
